<svg width="51" height="51" viewBox="0 0 51 51" fill="none" xmlns="http://www.w3.org/2000/svg">
<circle cx="25.5" cy="25.5" r="25.5" fill="#00BF80"/>
<path d="M8 24C6.89543 24 6 24.8954 6 26C6 27.1046 6.89543 28 8 28V26V24ZM41.4142 27.4142C42.1953 26.6332 42.1953 25.3668 41.4142 24.5858L28.6863 11.8579C27.9052 11.0768 26.6389 11.0768 25.8579 11.8579C25.0768 12.6389 25.0768 13.9052 25.8579 14.6863L37.1716 26L25.8579 37.3137C25.0768 38.0948 25.0768 39.3611 25.8579 40.1421C26.6389 40.9232 27.9052 40.9232 28.6863 40.1421L41.4142 27.4142ZM8 26V28H40V26V24H8V26Z" fill="white"/>
</svg>
